<?xml version="1.0" standalone="no"?>
<!DOCTYPE svg PUBLIC "-//W3C//DTD SVG 20010904//EN"
 "http://www.w3.org/TR/2001/REC-SVG-20010904/DTD/svg10.dtd">
<svg version="1.0" xmlns="http://www.w3.org/2000/svg"
 width="2000.000000pt" height="1500.000000pt" viewBox="0 0 2000.000000 1500.000000"
 preserveAspectRatio="xMidYMid meet">

<g transform="translate(0.000000,1500.000000) scale(0.100000,-0.100000)"
fill="#000000" stroke="none">
<path d="M0 7500 l0 -7500 10000 0 10000 0 0 7500 0 7500 -10000 0 -10000 0 0
-7500z m14543 905 c87 -23 153 -60 220 -126 l62 -59 44 46 c122 125 268 173
440 144 207 -35 367 -191 417 -408 23 -97 20 -259 -5 -366 -12 -48 -21 -89
-21 -92 0 -2 67 -4 148 -4 l148 0 114 286 c115 288 130 314 177 314 49 0 69
-36 213 -400 78 -195 145 -359 149 -363 4 -4 20 24 35 63 15 38 37 77 49 85
18 12 63 15 249 15 147 0 236 -4 252 -11 32 -15 50 -57 37 -90 -19 -51 -30
-54 -245 -57 l-201 -3 -53 -134 c-29 -73 -62 -141 -73 -151 -25 -23 -75 -22
-99 2 -15 15 -151 346 -302 734 -9 22 -20 -1 -97 -195 -82 -204 -91 -221 -122
-237 -29 -16 -64 -18 -251 -18 -125 0 -218 -4 -218 -9 0 -17 -120 -172 -211
-272 -157 -172 -526 -489 -571 -489 -25 0 -53 15 -108 59 -288 229 -538 479
-660 660 -54 81 -113 208 -134 291 -24 90 -31 251 -17 336 34 194 144 348 296
415 105 46 239 60 338 34z m-10963 -686 l285 -571 282 571 282 571 256 0 255
0 0 -85 0 -84 -132 -3 -133 -3 -3 -537 -2 -537 132 -3 133 -3 3 -87 3 -88
-366 0 -365 0 0 90 0 90 124 0 125 0 4 438 c3 240 8 453 12 472 4 19 -122
-223 -279 -538 l-285 -573 -53 3 -53 3 -283 565 c-155 311 -279 554 -276 540
4 -14 9 -224 11 -467 l5 -442 121 -3 122 -3 3 -87 3 -88 -361 0 -360 0 0 90 0
90 135 0 135 0 -2 538 -3 537 -132 3 -133 3 0 84 0 85 253 0 252 0 285 -571z
m2720 486 l0 -84 -104 -3 -105 -3 232 -537 232 -538 113 0 112 0 0 -90 0 -90
-340 0 -340 0 0 90 0 89 113 3 113 3 -65 163 -64 162 -306 0 -307 0 -66 -165
-66 -165 124 0 124 0 0 -90 0 -90 -340 0 -341 0 3 88 3 87 111 3 111 3 230
537 230 537 -104 3 -103 3 0 84 0 85 400 0 400 0 0 -85z m2040 -150 l0 -235
-100 0 -100 0 0 150 0 150 -215 0 -215 0 0 -540 0 -540 135 0 135 0 0 -90 0
-90 -380 0 -381 0 3 88 3 87 133 3 132 3 0 539 0 540 -212 -2 -213 -3 -3 -147
-3 -148 -94 0 -95 0 0 235 0 235 735 0 735 0 0 -235z m1570 5 l0 -230 -100 0
-100 0 0 145 0 145 -367 -2 -368 -3 -3 -227 -2 -228 165 0 165 0 0 95 0 95 85
0 85 0 0 -275 0 -275 -85 0 -85 0 0 100 0 100 -162 -2 -163 -3 -3 -227 -2
-228 370 0 370 0 0 140 0 140 100 0 100 0 0 -230 0 -230 -710 0 -711 0 3 88 3
87 133 3 132 3 0 539 0 540 -135 0 -135 0 0 85 0 85 710 0 710 0 0 -230z
m1025 -142 c176 -205 380 -441 453 -526 l132 -153 0 440 0 441 -135 0 -135 0
0 85 0 85 370 0 370 0 0 -85 0 -84 -132 -3 -133 -3 -3 -632 -2 -633 -53 0 -53
0 -487 554 c-268 305 -494 559 -502 566 -13 11 -15 -44 -15 -459 l0 -471 130
0 130 0 0 -90 0 -90 -365 0 -365 0 0 90 0 90 135 0 135 0 0 540 0 540 -135 0
-135 0 0 85 0 85 238 0 238 0 319 -372z m2058 357 c392 -68 627 -329 627 -694
0 -138 -20 -227 -72 -331 -87 -172 -254 -298 -476 -358 -96 -26 -100 -26 -534
-30 l-438 -3 0 90 0 91 135 0 135 0 -2 538 -3 537 -132 3 -133 3 0 84 0 85
404 0 c313 0 423 -3 489 -15z"/>
<path d="M15165 8259 c-97 -12 -192 -83 -250 -185 -41 -72 -54 -84 -90 -84
-39 0 -55 13 -90 75 -40 70 -105 137 -162 165 -69 35 -196 40 -274 11 -161
-61 -241 -195 -242 -406 -1 -245 100 -431 389 -717 127 -126 341 -313 372
-325 18 -7 225 170 388 332 273 273 366 438 380 675 15 252 -106 431 -311 458
-33 4 -83 5 -110 1z"/>
<path d="M5769 7838 c-61 -156 -114 -291 -117 -300 -4 -17 12 -18 237 -18 148
0 241 4 241 10 0 19 -230 585 -239 588 -5 2 -60 -124 -122 -280z"/>
<path d="M12590 7580 l0 -542 183 4 c154 4 193 9 252 28 104 33 162 66 225
126 102 97 143 205 144 374 1 235 -80 378 -265 469 -109 54 -189 70 -381 78
l-158 6 0 -543z"/>
</g>
</svg>
