<?xml version="1.0" standalone="no"?>
<!DOCTYPE svg PUBLIC "-//W3C//DTD SVG 20010904//EN"
 "http://www.w3.org/TR/2001/REC-SVG-20010904/DTD/svg10.dtd">
<svg version="1.0" xmlns="http://www.w3.org/2000/svg"
 width="2000.000000pt" height="1500.000000pt" viewBox="0 0 2000.000000 1500.000000"
 preserveAspectRatio="xMidYMid meet">

<g transform="translate(0.000000,1500.000000) scale(0.100000,-0.100000)"
fill="#000000" stroke="none">
<path d="M14315 8403 c-157 -33 -278 -127 -344 -267 -55 -114 -66 -170 -65
-316 3 -286 107 -484 424 -801 196 -197 450 -409 489 -409 25 0 90 45 206 143
240 201 424 389 538 550 l62 87 223 0 c127 0 231 4 242 10 11 6 51 92 106 230
48 121 91 217 95 213 4 -5 73 -173 154 -376 95 -238 154 -371 165 -377 29 -16
75 -12 93 8 8 9 39 78 69 152 l54 135 208 5 c191 5 209 7 222 24 23 33 18 82
-12 105 -25 20 -39 21 -253 21 -159 0 -233 -4 -250 -13 -17 -8 -35 -36 -57
-92 -26 -65 -34 -76 -40 -60 -180 460 -295 732 -317 749 -27 20 -65 17 -90 -8
-8 -8 -65 -141 -127 -295 l-112 -281 -153 0 -152 0 19 68 c28 95 35 284 14
381 -42 199 -168 347 -340 400 -192 59 -365 21 -502 -111 l-61 -58 -61 58
c-70 67 -161 116 -246 131 -76 14 -115 13 -201 -6z m251 -168 c62 -30 143
-113 178 -183 43 -85 111 -84 157 1 60 111 131 173 235 203 50 14 70 15 132 6
161 -25 264 -122 307 -289 49 -187 -9 -417 -155 -613 -77 -104 -325 -353 -480
-482 l-115 -96 -25 18 c-65 46 -267 227 -375 335 -253 253 -356 436 -371 660
-10 139 29 270 107 359 95 107 277 144 405 81z"/>
<path d="M2790 8205 l0 -85 135 0 135 0 0 -545 0 -545 -135 0 -135 0 0 -85 0
-85 360 0 360 0 0 85 0 85 -124 0 -124 0 -5 438 c-3 240 -8 453 -12 472 -3 19
122 -218 277 -527 l283 -563 56 0 55 0 282 568 c191 384 280 554 276 527 -3
-22 -8 -237 -11 -477 l-5 -438 -124 0 -124 0 0 -85 0 -85 365 0 365 0 0 85 0
85 -135 0 -135 0 0 545 0 545 135 0 135 0 0 85 0 85 -255 0 -255 0 -99 -202
c-54 -112 -181 -369 -281 -573 l-182 -370 -287 573 -286 572 -252 0 -253 0 0
-85z"/>
<path d="M5500 8205 l0 -84 105 -3 104 -3 -232 -542 -231 -543 -113 0 -113 0
0 -85 0 -85 340 0 340 0 0 85 0 85 -125 0 c-69 0 -125 2 -125 5 0 3 30 79 66
170 l66 165 310 -2 310 -3 59 -150 c32 -82 62 -158 65 -167 5 -16 -5 -18 -110
-18 l-116 0 0 -85 0 -85 340 0 340 0 0 85 0 84 -112 3 -112 3 -233 539 c-128
296 -233 540 -233 542 0 2 47 4 105 4 l105 0 0 85 0 85 -400 0 -400 0 0 -85z
m505 -346 c55 -140 108 -273 118 -296 l17 -43 -245 0 c-191 0 -245 3 -245 13
0 7 48 132 106 277 58 146 110 275 115 288 5 13 14 22 21 20 6 -2 57 -119 113
-259z"/>
<path d="M6870 8055 l0 -235 95 0 95 0 0 150 0 150 220 0 220 0 -2 -542 -3
-543 -137 -3 -138 -3 0 -84 0 -85 380 0 380 0 0 85 0 85 -135 0 -135 0 0 545
0 545 220 0 220 0 0 -150 0 -150 90 0 90 0 0 235 0 235 -730 0 -730 0 0 -235z"/>
<path d="M8490 8205 l0 -85 135 0 135 0 0 -545 0 -545 -135 0 -135 0 0 -85 0
-85 710 0 710 0 0 230 0 230 -95 0 -94 0 -3 -142 -3 -143 -372 -3 -373 -2 0
235 0 235 165 0 165 0 0 -100 0 -101 83 3 82 3 3 273 2 272 -85 0 -85 0 0 -95
0 -95 -165 0 -165 0 0 230 0 230 375 0 375 0 0 -145 0 -146 93 3 92 3 3 228 2
227 -710 0 -710 0 0 -85z"/>
<path d="M10140 8205 l0 -85 135 0 135 0 0 -545 0 -545 -135 0 -135 0 0 -85 0
-85 365 0 365 0 0 85 0 85 -130 0 -130 0 0 482 c0 282 4 478 9 473 5 -6 230
-262 501 -570 l492 -560 54 -3 54 -3 0 636 0 635 130 0 130 0 0 85 0 85 -360
0 -360 0 0 -85 0 -84 133 -3 132 -3 3 -437 c1 -241 -1 -438 -5 -438 -5 0 -210
236 -458 525 l-450 524 -237 1 -238 0 0 -85z"/>
<path d="M12100 8205 l0 -85 135 0 135 0 0 -545 0 -545 -135 0 -135 0 0 -86 0
-86 428 5 c360 3 439 7 502 21 365 85 571 313 587 651 17 341 -157 594 -484
704 -129 43 -223 51 -640 51 l-393 0 0 -85z m890 -110 c261 -65 409 -250 410
-510 0 -371 -253 -567 -715 -553 l-100 3 -3 544 -2 544 172 -6 c107 -3 198
-12 238 -22z"/>
</g>
</svg>
