<?xml version="1.0" standalone="no"?>
<!DOCTYPE svg PUBLIC "-//W3C//DTD SVG 20010904//EN"
 "http://www.w3.org/TR/2001/REC-SVG-20010904/DTD/svg10.dtd">
<svg version="1.0" xmlns="http://www.w3.org/2000/svg"
 width="2000.000000pt" height="324.000000pt" viewBox="0 0 2000.000000 324.000000"
 preserveAspectRatio="xMidYMid meet">

<g transform="translate(0.000000,324.000000) scale(0.100000,-0.100000)"
fill="#000000" stroke="none">
<path d="M15805 2829 c-235 -36 -411 -161 -509 -359 -70 -144 -89 -226 -90
-405 -1 -219 33 -357 136 -557 138 -266 503 -651 941 -992 140 -108 152 -109
268 -19 373 287 739 653 898 897 l43 66 292 0 c257 0 295 2 326 18 33 16 40
31 146 296 61 154 116 287 121 295 7 11 62 -117 207 -480 141 -353 204 -500
222 -517 34 -30 97 -30 127 1 13 12 56 104 96 204 l73 182 270 3 270 3 29 33
c16 18 29 44 29 58 0 33 -25 81 -49 94 -12 6 -138 10 -336 10 -269 0 -319 -2
-340 -16 -15 -10 -37 -48 -60 -107 -20 -51 -40 -95 -44 -99 -3 -4 -94 212
-200 480 -126 317 -202 497 -219 515 -31 33 -97 38 -131 10 -13 -11 -78 -160
-174 -398 l-152 -380 -204 -3 c-183 -2 -203 -1 -197 14 40 105 71 325 62 444
-34 439 -302 712 -701 713 -183 0 -316 -55 -447 -185 l-78 -77 -73 73 c-149
149 -350 217 -552 185z m220 -211 c103 -25 229 -135 292 -254 42 -80 65 -99
114 -98 49 2 71 21 112 98 18 34 61 91 96 128 112 119 240 162 400 134 108
-19 180 -54 250 -121 113 -108 165 -251 164 -455 -2 -328 -147 -588 -540 -971
-125 -122 -265 -246 -410 -362 l-72 -59 -58 45 c-187 145 -498 435 -633 592
-209 243 -300 424 -330 654 -40 310 91 578 321 656 93 32 199 37 294 13z"/>
<path d="M390 2555 l0 -115 175 0 175 0 0 -725 0 -725 -175 0 -175 0 0 -115 0
-115 475 0 475 0 0 115 0 115 -164 0 -164 0 -6 583 c-2 320 -7 602 -10 627 -4
35 80 -127 369 -707 l374 -753 73 0 73 0 375 759 c206 418 376 754 378 747 2
-7 -2 -49 -8 -92 -7 -47 -14 -298 -17 -621 l-5 -543 -164 0 -164 0 0 -115 0
-115 485 0 485 0 0 115 0 115 -175 0 -175 0 0 725 0 725 175 0 175 0 0 115 0
115 -337 0 -338 0 -374 -760 c-206 -418 -377 -758 -380 -755 -3 2 -177 344
-386 759 l-380 756 -332 0 -333 0 0 -115z"/>
<path d="M4000 2555 l0 -114 139 -3 140 -3 -308 -720 -308 -720 -151 -3 -152
-3 0 -114 0 -115 455 0 455 0 0 115 0 115 -169 2 -169 3 88 220 88 220 413 0
413 0 88 -220 87 -220 -155 -3 -154 -3 0 -114 0 -115 455 0 455 0 0 115 0 114
-151 3 -151 3 -309 714 c-170 393 -309 719 -309 723 0 4 63 8 140 8 l140 0 0
115 0 115 -535 0 -535 0 0 -115z m690 -506 c85 -215 157 -395 158 -400 2 -5
-127 -9 -328 -9 -185 0 -330 4 -328 9 139 364 316 791 328 791 10 0 62 -117
170 -391z"/>
<path d="M5830 2355 l0 -315 125 0 125 0 0 200 0 200 290 0 290 0 0 -725 0
-725 -180 0 -180 0 0 -115 0 -115 505 0 505 0 0 115 0 115 -180 0 -180 0 0
725 0 725 290 0 290 0 0 -200 0 -200 125 0 125 0 0 315 0 315 -975 0 -975 0 0
-315z"/>
<path d="M7990 2555 l0 -115 178 -2 177 -3 0 -720 0 -720 -177 -3 -178 -2 0
-115 0 -115 940 0 940 0 0 305 0 305 -125 0 -125 0 0 -190 0 -190 -495 0 -495
0 0 310 0 310 220 0 220 0 0 -130 0 -130 110 0 110 0 0 365 0 365 -110 0 -110
0 0 -130 0 -130 -220 0 -220 0 0 310 0 310 495 0 495 0 0 -190 0 -190 125 0
125 0 0 305 0 305 -940 0 -940 0 0 -115z"/>
<path d="M10190 2555 l0 -115 178 -2 177 -3 0 -720 0 -720 -177 -3 -178 -2 0
-115 0 -115 485 0 485 0 0 115 0 115 -170 0 -170 0 0 637 c0 538 2 635 14 623
7 -8 309 -352 671 -763 l657 -748 67 3 66 3 3 848 2 847 175 0 175 0 0 115 0
115 -490 0 -490 0 0 -115 0 -115 180 0 180 0 0 -592 c0 -564 -1 -592 -18 -571
-9 12 -282 330 -607 707 l-590 686 -312 0 -313 0 0 -115z"/>
<path d="M12800 2555 l0 -115 180 0 180 0 0 -725 0 -725 -180 0 -180 0 0 -115
0 -115 503 0 c276 0 543 5 592 10 399 45 693 229 842 525 74 147 105 343 84
534 -14 129 -38 216 -92 322 -142 284 -448 468 -843 508 -63 6 -316 11 -598
11 l-488 0 0 -115z m1045 -126 c305 -37 515 -164 613 -369 57 -121 67 -172 67
-345 0 -173 -10 -224 -67 -344 -98 -205 -316 -337 -614 -371 -54 -6 -166 -10
-249 -8 l-150 3 -3 710 c-1 391 0 716 3 723 6 16 272 17 400 1z"/>
</g>
</svg>
