<?xml version="1.0" standalone="no"?>
<!DOCTYPE svg PUBLIC "-//W3C//DTD SVG 20010904//EN"
 "http://www.w3.org/TR/2001/REC-SVG-20010904/DTD/svg10.dtd">
<svg version="1.0" xmlns="http://www.w3.org/2000/svg"
 width="4000.000000pt" height="3000.000000pt" viewBox="0 0 4000.000000 3000.000000"
 preserveAspectRatio="xMidYMid meet">

<g transform="translate(0.000000,3000.000000) scale(0.100000,-0.100000)"
fill="#000000" stroke="none">
<path d="M27252 21934 c-260 -44 -473 -168 -615 -359 -101 -136 -156 -263
-198 -458 -19 -86 -22 -132 -22 -292 0 -165 4 -206 26 -310 81 -381 233 -646
603 -1055 230 -254 580 -574 926 -847 125 -98 151 -113 196 -113 48 0 78 18
251 157 238 193 446 378 660 587 260 257 441 468 570 669 l43 67 82 0 c368 0
775 9 798 18 14 6 37 26 50 44 21 27 137 309 307 743 15 38 34 71 42 73 11 2
61 -112 193 -445 98 -246 185 -464 193 -483 8 -19 19 -45 24 -57 5 -13 13 -33
18 -45 5 -13 42 -105 81 -206 67 -170 76 -185 111 -209 33 -22 47 -25 91 -21
82 8 98 32 217 330 l102 256 377 4 c419 4 419 4 461 71 39 63 18 148 -44 187
-31 19 -49 20 -482 20 l-450 0 -34 -23 c-35 -23 -70 -92 -123 -240 -12 -34
-28 -62 -35 -62 -10 0 -422 1009 -488 1195 -15 43 -29 76 -79 188 -29 63 -70
92 -132 92 -51 0 -93 -22 -115 -59 -8 -14 -108 -260 -222 -546 -114 -286 -214
-526 -223 -532 -12 -10 -86 -13 -289 -13 -239 0 -274 2 -280 16 -3 8 4 48 15
87 49 170 65 284 65 467 0 162 -5 219 -34 340 -55 226 -180 435 -337 561 -81
66 -244 149 -337 174 -86 23 -230 45 -300 45 -176 0 -376 -66 -520 -172 -58
-43 -180 -162 -197 -193 -5 -8 -15 -15 -21 -15 -7 0 -62 48 -123 108 -80 78
-132 120 -194 155 -184 103 -391 138 -608 101z m270 -275 c135 -28 222 -73
322 -168 77 -74 139 -158 184 -246 36 -72 54 -89 108 -105 36 -11 47 -10 86 7
39 18 50 31 97 114 101 178 201 281 336 345 119 57 246 75 371 54 171 -29 282
-84 397 -197 268 -263 299 -801 72 -1253 -166 -331 -559 -756 -1173 -1267 -75
-62 -143 -113 -151 -113 -49 1 -659 541 -875 775 -378 410 -513 643 -587 1010
-17 80 -16 354 0 430 57 263 171 433 361 537 128 70 324 103 452 77z"/>
<path d="M6824 21657 c-2 -7 -3 -74 -2 -148 l3 -134 229 -2 c178 -1 231 -4
237 -15 5 -7 9 -437 9 -954 0 -864 -1 -943 -17 -955 -12 -11 -66 -14 -232 -16
-119 -1 -219 -2 -223 -2 -5 -1 -8 -64 -8 -141 l0 -140 630 0 630 0 0 145 0
145 -217 2 -218 3 -6 735 c-3 486 -10 765 -17 824 -22 159 -12 145 177 -237
87 -177 308 -623 490 -990 l332 -668 91 3 91 3 73 145 c40 80 224 451 409 825
478 968 508 1029 524 1033 11 4 13 -5 7 -49 -21 -164 -25 -305 -26 -924 0
-374 -4 -686 -8 -692 -6 -9 -66 -13 -222 -15 l-215 -3 -3 -142 -3 -143 641 0
641 0 -3 143 -3 142 -222 0 c-149 0 -226 4 -233 11 -13 13 -15 1903 -2 1916 4
4 109 9 232 10 l225 3 0 145 0 145 -444 0 c-384 0 -445 -2 -453 -15 -4 -8
-115 -231 -244 -495 -130 -264 -304 -617 -386 -785 -83 -168 -195 -396 -249
-508 -69 -141 -104 -202 -114 -200 -8 2 -238 449 -511 993 -273 545 -501 996
-506 1003 -16 18 -876 18 -884 -1z"/>
<path d="M11624 21657 c-2 -7 -3 -71 -2 -143 l3 -129 178 -3 c143 -2 179 -5
183 -17 3 -8 -15 -63 -41 -122 -26 -59 -79 -182 -117 -273 -38 -91 -76 -178
-84 -195 -7 -16 -135 -316 -284 -665 -148 -349 -274 -642 -279 -650 -7 -12
-44 -16 -202 -21 -107 -3 -195 -6 -196 -7 -2 -1 -3 -65 -3 -141 l0 -140 552
-3 c303 -2 571 -1 595 1 l44 3 -3 142 -3 141 -210 3 c-115 1 -213 6 -218 11
-11 11 221 591 237 592 6 0 251 0 545 0 420 0 537 -3 547 -13 6 -7 42 -92 79
-188 37 -96 85 -217 106 -269 22 -51 39 -102 39 -112 0 -17 -12 -19 -197 -21
l-198 -3 -3 -142 -3 -141 73 -4 c40 -2 309 -1 598 2 l525 5 0 140 0 140 -189
2 c-141 1 -192 5 -202 15 -7 7 -43 83 -79 168 -37 85 -73 169 -80 185 -8 17
-36 82 -63 145 -27 63 -123 284 -212 490 -89 206 -188 436 -220 510 -32 74
-83 193 -114 263 -32 70 -56 136 -54 145 3 15 23 17 180 20 l177 2 6 33 c3 17
5 82 3 142 l-3 110 -703 3 c-572 2 -704 0 -708 -11z m708 -294 c8 -10 99 -232
202 -493 104 -261 195 -488 202 -504 21 -43 18 -56 -13 -56 -187 -1 -821 -2
-830 -1 -7 0 -13 7 -13 15 0 15 381 980 406 1028 17 33 25 35 46 11z"/>
<path d="M14065 21657 c-3 -6 -4 -190 -3 -407 l3 -395 158 0 158 0 -1 246 c0
214 2 249 15 263 15 14 60 16 385 16 355 0 370 -1 380 -19 13 -26 14 -1889 0
-1911 -8 -12 -50 -16 -242 -20 l-232 -5 0 -135 -1 -135 668 -3 668 -2 -3 142
-3 143 -225 -3 c-124 -2 -231 1 -238 6 -19 13 -18 1922 1 1934 7 4 177 8 379
8 353 0 368 -1 378 -19 6 -12 10 -115 10 -265 l0 -246 160 0 160 0 0 410 0
410 -1285 0 c-1020 0 -1287 -3 -1290 -13z"/>
<path d="M16937 21663 c-4 -3 -7 -68 -7 -144 0 -101 3 -139 13 -142 6 -3 107
-2 222 1 190 4 212 3 228 -12 16 -16 17 -81 17 -959 0 -575 -4 -948 -10 -957
-8 -12 -48 -16 -240 -18 l-231 -3 3 -137 3 -137 1245 0 1245 0 0 395 0 395
-160 0 -160 0 -5 -250 -5 -249 -40 -7 c-22 -3 -316 -6 -653 -5 -533 1 -614 3
-622 16 -12 18 -13 789 -2 808 7 9 73 12 298 10 l289 -3 3 -167 2 -168 140 0
140 0 0 475 0 475 -140 0 -140 0 0 -158 c0 -110 -4 -162 -12 -170 -9 -9 -87
-12 -288 -12 -201 0 -279 3 -288 12 -15 15 -17 784 -2 808 8 13 90 15 655 13
355 -1 650 -5 655 -8 6 -4 10 -104 10 -250 0 -212 2 -244 16 -249 9 -3 80 -6
160 -6 141 0 144 0 149 23 3 12 4 193 3 402 l-3 380 -1241 3 c-682 1 -1244 -1
-1247 -5z"/>
<path d="M19854 21655 c-4 -8 -2 -75 2 -148 l9 -132 228 -3 c170 -2 229 -6
232 -15 2 -6 6 -434 9 -949 3 -768 2 -940 -9 -955 -12 -16 -33 -18 -236 -18
-264 -1 -242 14 -232 -166 l6 -119 633 0 634 0 5 23 c3 12 4 76 3 142 l-3 120
-215 0 c-118 0 -221 4 -227 8 -18 12 -19 1672 -1 1683 7 5 25 -9 47 -36 35
-43 691 -791 1040 -1185 97 -110 273 -310 391 -445 118 -135 235 -266 259
-292 l44 -48 89 0 88 0 2 1123 3 1122 225 5 225 5 3 148 3 147 -638 -2 -638
-3 0 -145 0 -145 222 -1 c122 -1 229 -4 238 -7 13 -6 15 -92 15 -776 0 -574
-3 -772 -12 -777 -6 -4 -22 5 -37 22 -14 16 -78 90 -141 164 -63 73 -160 186
-215 249 -55 64 -127 148 -160 187 -33 39 -141 164 -240 279 -99 114 -207 240
-240 279 -149 177 -560 652 -573 664 -12 9 -112 12 -424 12 -356 0 -409 -2
-414 -15z"/>
<path d="M23337 21663 c-4 -3 -7 -69 -7 -145 0 -103 3 -138 13 -140 6 -1 110
-2 230 -2 182 -1 219 -3 227 -16 6 -9 10 -381 10 -962 0 -746 -3 -948 -12
-955 -7 -4 -114 -7 -238 -8 l-225 0 -3 -143 c-2 -110 0 -142 10 -142 7 0 326
0 710 0 573 0 715 3 800 16 202 30 344 72 502 150 385 192 620 537 657 964 31
363 -67 693 -276 930 -225 256 -594 419 -1014 450 -144 11 -1374 13 -1384 3z
m1422 -308 c280 -41 529 -160 659 -314 88 -104 154 -236 187 -371 23 -92 31
-319 15 -433 -63 -461 -417 -752 -965 -792 -123 -9 -463 -11 -471 -2 -8 8 -17
1883 -8 1909 5 17 23 18 241 18 159 0 270 -5 342 -15z"/>
</g>
</svg>
