<?xml version="1.0" standalone="no"?>
<!DOCTYPE svg PUBLIC "-//W3C//DTD SVG 20010904//EN"
 "http://www.w3.org/TR/2001/REC-SVG-20010904/DTD/svg10.dtd">
<svg version="1.0" xmlns="http://www.w3.org/2000/svg"
 width="3872.000000pt" height="1600.000000pt" viewBox="0 0 3872.000000 1600.000000"
 preserveAspectRatio="xMidYMid meet">

<g transform="translate(0.000000,1600.000000) scale(0.100000,-0.100000)"
fill="#000000" stroke="none">
<path d="M15862 14363 c-27 -11 2 -23 56 -23 52 1 55 2 38 15 -19 15 -68 19
-94 8z"/>
<path d="M15400 14350 c-10 -6 37 -9 140 -8 143 1 148 2 70 9 -122 10 -193 10
-210 -1z"/>
<path d="M2630 13945 c0 -19 9 -19 34 0 19 14 19 15 -7 15 -17 0 -27 -5 -27
-15z"/>
<path d="M20805 13950 c3 -5 10 -10 16 -10 5 0 9 5 9 10 0 6 -7 10 -16 10 -8
0 -12 -4 -9 -10z"/>
<path d="M32180 10690 c0 -5 5 -10 10 -10 6 0 10 5 10 10 0 6 -4 10 -10 10 -5
0 -10 -4 -10 -10z"/>
<path d="M10180 10250 c0 -13 5 -20 13 -17 6 2 12 10 12 17 0 7 -6 15 -12 18
-8 2 -13 -5 -13 -18z"/>
<path d="M5310 10051 c0 -65 13 -122 26 -117 7 3 18 -3 24 -12 10 -15 11 -15
5 3 -4 11 -14 50 -23 87 -18 71 -32 88 -32 39z"/>
<path d="M8968 10075 c-3 -6 -13 -39 -22 -75 -9 -36 -19 -74 -23 -85 -3 -11
-2 -17 2 -13 5 4 14 3 20 -2 10 -8 16 9 25 73 12 79 11 123 -2 102z"/>
<path d="M17875 9987 c-4 -10 -5 -21 -1 -24 10 -10 18 4 13 24 -4 17 -4 17
-12 0z"/>
<path d="M22830 9670 c19 -17 49 -40 65 -52 l30 -21 -30 32 c-16 17 -45 41
-65 52 l-35 20 35 -31z"/>
<path d="M23848 9676 c-24 -18 -22 -42 7 -96 l24 -45 1 78 c0 42 -3 77 -7 77
-5 0 -16 -7 -25 -14z"/>
<path d="M25574 9584 c-11 -61 -7 -67 18 -24 14 25 15 34 4 54 -11 23 -13 21
-22 -30z"/>
<path d="M14191 9548 c13 -18 25 -26 27 -19 4 13 -25 51 -40 51 -5 0 1 -14 13
-32z"/>
<path d="M32170 9548 c0 -8 7 -23 15 -34 15 -18 15 -18 13 10 -3 29 -28 50
-28 24z"/>
<path d="M21545 9110 l-20 -9 20 0 c11 0 29 4 40 9 l20 9 -20 0 c-11 0 -29 -4
-40 -9z"/>
<path d="M16706 9101 c-4 -5 -2 -12 3 -15 5 -4 12 -2 15 3 4 5 2 12 -3 15 -5
4 -12 2 -15 -3z"/>
<path d="M17860 9086 c0 -7 6 -19 14 -25 11 -9 15 -8 20 5 3 9 4 20 0 25 -8
14 -34 11 -34 -5z"/>
<path d="M21330 9070 c-73 -24 -52 -25 30 -1 36 11 56 20 45 20 -11 0 -45 -8
-75 -19z"/>
<path d="M38186 8979 c25 -50 47 -89 49 -87 10 10 -19 95 -46 134 -50 73 -51
50 -3 -47z"/>
<path d="M21230 9037 c-14 -6 -48 -21 -77 -34 -28 -13 -54 -27 -58 -32 -5 -8
16 0 145 61 19 9 31 17 25 17 -5 0 -21 -5 -35 -12z"/>
<path d="M21049 8939 l-24 -20 28 17 c15 9 27 18 27 20 0 8 -8 4 -31 -17z"/>
<path d="M38422 8210 c0 -14 2 -19 5 -12 2 6 2 18 0 25 -3 6 -5 1 -5 -13z"/>
<path d="M20611 8161 c-9 -16 -8 -18 8 -14 12 3 17 11 14 19 -7 18 -10 18 -22
-5z"/>
<path d="M7130 7963 c0 -10 3 -29 7 -41 4 -18 8 -20 14 -10 15 22 11 68 -6 68
-8 0 -15 -8 -15 -17z"/>
<path d="M38423 7420 c0 -25 2 -35 4 -22 2 12 2 32 0 45 -2 12 -4 2 -4 -23z"/>
<path d="M20650 7428 c0 -7 5 -20 10 -28 8 -13 10 -12 10 3 0 9 0 20 1 24 0 4
-4 9 -10 11 -6 2 -11 -2 -11 -10z"/>
<path d="M38412 7340 c0 -14 2 -19 5 -12 2 6 2 18 0 25 -3 6 -5 1 -5 -13z"/>
<path d="M3986 7065 c-3 -9 0 -26 6 -38 13 -22 13 -21 16 7 4 33 -12 56 -22
31z"/>
<path d="M4078 7066 c-24 -17 -22 -71 2 -116 l19 -35 1 83 c0 45 -1 82 -2 82
-2 0 -11 -7 -20 -14z"/>
<path d="M5326 6691 c-4 -7 -5 -15 -2 -18 9 -9 19 4 14 18 -4 11 -6 11 -12 0z"/>
<path d="M8955 6690 c-3 -5 -1 -10 4 -10 6 0 11 5 11 10 0 6 -2 10 -4 10 -3 0
-8 -4 -11 -10z"/>
<path d="M10180 6690 c0 -5 5 -10 11 -10 5 0 7 5 4 10 -3 6 -8 10 -11 10 -2 0
-4 -4 -4 -10z"/>
<path d="M4080 6676 c0 -2 7 -9 15 -16 13 -11 14 -10 9 4 -5 14 -24 23 -24 12z"/>
<path d="M25590 6544 c0 -8 5 -12 10 -9 6 4 8 11 5 16 -9 14 -15 11 -15 -7z"/>
<path d="M28316 6545 c-3 -8 -1 -15 4 -15 6 0 10 7 10 15 0 8 -2 15 -4 15 -2
0 -6 -7 -10 -15z"/>
<path d="M33360 6550 c0 -5 5 -10 11 -10 5 0 7 5 4 10 -3 6 -8 10 -11 10 -2 0
-4 -4 -4 -10z"/>
<path d="M28864 6215 c0 -88 2 -123 3 -77 2 46 2 118 0 160 -1 42 -3 5 -3 -83z"/>
<path d="M2629 6195 c-1 -38 -3 -88 -4 -110 0 -22 2 -51 5 -65 5 -20 9 -12 20
38 8 41 18 62 27 62 17 0 12 18 -23 94 l-24 51 -1 -70z"/>
<path d="M32170 6089 c-11 -26 -11 -32 1 -39 17 -11 19 -9 29 34 10 46 -12 50
-30 5z"/>
<path d="M2631 5256 c0 -154 2 -277 5 -273 11 10 15 376 5 467 -7 68 -9 28
-10 -194z"/>
<path d="M2636 3191 c-4 -5 -2 -12 3 -15 5 -4 12 -2 15 3 4 5 2 12 -3 15 -5 4
-12 2 -15 -3z"/>
</g>
</svg>
